<svg width="1440" height="180" viewBox="0 0 1440 180" fill="none" xmlns="http://www.w3.org/2000/svg">
<g clip-path="url(#clip0_38_232)">
<path d="M973.505 171.92V144.52H954.065L954.815 120.78H947.425V115.53H953.755V110.28H944.255L932.645 80.86H924.205L924.835 129.14H917.065C915.885 126.54 914.025 124.84 912.125 123.72L912.635 122.89V109.78H910.385V103.06H908.455V82.59H906.525L905.245 50.92V50.28L903.965 81.95H902.035V102.42H900.105V109.14H897.855V122.25L898.365 123.08C896.425 124.22 894.525 125.96 893.355 128.65L894.835 129.14H886.035V128.64H880.025V119.07H875.825V112.29H865.015V119.07H860.815V128.64H849.585V102.53H837.335V143.09H834.955V126.51H830.555V109.64H822.355V102.38H812.075V114.25L802.545 114.19V91.14H788.705V109.99L783.935 117.05V138.12H780.525V121.63H773.685V117.62H772.275V121.63H771.525V117.62H770.105V121.63H766.935L763.555 127.5V145.43H760.715V67.39C760.715 66.49 759.985 65.76 759.085 65.76H758.945V54.48C758.945 53.64 758.265 52.96 757.425 52.96H757.205V44.39C757.205 43.68 756.665 43.09 755.975 43.01V36.68C755.975 35.96 755.395 35.38 754.675 35.38H753.655V32.61C753.655 32.54 753.645 32.48 753.615 32.41L748.205 19.35C748.175 19.29 748.165 19.22 748.165 19.15V0.51C748.165 0.23 747.935 0 747.655 0C747.375 0 747.145 0.23 747.145 0.51V19.16C747.145 19.23 747.135 19.29 747.105 19.36L741.695 32.42C741.665 32.48 741.655 32.55 741.655 32.62V35.39H740.635C739.915 35.39 739.335 35.97 739.335 36.69V43.02C738.645 43.1 738.105 43.68 738.105 44.4V52.97H737.885C737.045 52.97 736.365 53.65 736.365 54.49V65.77H736.225C735.325 65.77 734.595 66.5 734.595 67.4V99.46H709.455V67.4C709.455 66.5 708.725 65.77 707.825 65.77H707.685V54.49C707.685 53.65 707.005 52.97 706.165 52.97H705.945V44.4C705.945 43.69 705.405 43.1 704.715 43.02V36.69C704.715 35.97 704.135 35.39 703.415 35.39H702.395V32.62C702.395 32.55 702.385 32.49 702.355 32.42L696.945 19.36C696.915 19.3 696.905 19.23 696.905 19.16V0.51C696.905 0.23 696.675 0 696.395 0C696.115 0 695.885 0.23 695.885 0.51V19.16C695.885 19.23 695.875 19.29 695.845 19.36L690.435 32.42C690.405 32.48 690.395 32.55 690.395 32.62V35.39H689.375C688.655 35.39 688.075 35.97 688.075 36.69V43.02C687.385 43.1 686.845 43.68 686.845 44.4V52.97H686.625C685.785 52.97 685.105 53.65 685.105 54.49V65.77H684.965C684.065 65.77 683.335 66.5 683.335 67.4V134.22H678.955V117.09H667.885V124.97H662.985V87.46H648.835V104.27H638.345V100.06H636.865V104.27H636.075V100.06H634.595V104.27H631.265L627.725 110.44V127.03H625.085V139.93H620.875V92.11H616.215V72.52H600.665V86.17H597.975V92.11H596.935V92.88H585.735V106.7H576.655V118.54H569.945V131.57H565.115V79.54H556.825V75.99H537.085V79.54H528.395V110.59H513.905V98.74H512.325V110.59H510.745V88.87H507.195V110.59H501.665V148.1H496.535V135.86H472.815V148.1H466.495V171.93H973.505V171.92ZM734.595 107.31V119.82C731.965 116.56 727.635 111.11 724.615 107.31H734.595ZM709.455 107.31H720.365C716.955 111.61 711.875 117.99 709.455 120.96V107.31ZM709.455 121.73C711.765 118.91 717.295 111.96 720.985 107.31H723.995C727.255 111.42 731.955 117.32 734.595 120.59V122.81H720.665V132.67H709.455V121.72V121.73Z" fill="#1C74B3"/>
</g>
<g clip-path="url(#clip1_38_232)">
<path d="M711.467 179.92V162.852C703.467 166.572 705.755 162.119 698.85 164.394C687.196 168.211 675.82 169.464 664.152 166.573C652.902 163.797 641.628 166.252 630.322 164.44C618.338 162.512 606.649 159.504 594.393 165.298C586.507 169.018 577.558 164.343 569.084 164.285C565.695 164.256 562.286 161.464 558.908 162.852C557.886 163.266 556.986 164.962 555.98 165.127C545.451 166.939 534.897 170.024 524.373 169.879C510.114 169.677 500.932 160.992 486.933 166.573C472.934 172.153 489.6 168.453 477.333 169.879C465.927 171.205 449.85 159.777 434.133 165.879C423.093 170.179 398.516 165.04 387.2 165.879C363.562 167.624 347.2 170.92 323.2 169.879C294.859 168.649 297.108 167.623 291.2 166.573C265.078 161.907 252.306 167.6 226.133 164.785C211.95 163.243 201.089 166.468 186.824 165.832C180.707 165.552 174.67 171.848 168.548 169.785C164.454 168.407 164.33 161.901 156.241 167.463C147.733 173.31 134.933 169.35 124.18 165.543C120.556 164.261 132.164 165.725 111.357 167.962C94.4 169.785 89.0629 170.892 77.8288 168.772C70.7451 167.432 63.6619 165.716 56.5782 165.427C45.2064 164.964 33.7067 163.682 22.4833 166.14C6.51154 169.64 -17.0666 165.783 -17.0666 169.514V179.92L711.467 179.92Z" fill="#1C74B3"/>
<path d="M711.467 179.92V162.852C719.467 166.572 717.179 162.119 724.084 164.394C735.737 168.211 747.113 169.464 758.782 166.573C770.031 163.797 781.306 166.252 792.611 164.44C804.596 162.512 816.284 159.504 828.54 165.298C836.427 169.018 845.375 164.343 853.85 164.285C857.238 164.256 860.647 161.464 864.026 162.852C865.047 163.266 865.947 164.962 866.954 165.127C877.482 166.939 888.036 170.024 898.56 169.879C912.819 169.677 922.001 160.992 936 166.573C949.999 172.153 933.333 168.453 945.6 169.879C957.006 171.205 973.084 159.777 988.8 165.879C999.84 170.179 1024.42 165.04 1035.73 165.879C1059.37 167.624 1075.73 170.92 1099.73 169.879C1128.07 168.649 1125.83 167.623 1131.73 166.573C1157.85 161.907 1170.63 167.6 1196.8 164.785C1210.98 163.243 1221.84 166.468 1236.11 165.832C1242.23 165.552 1248.26 171.848 1254.39 169.785C1258.48 168.407 1258.6 161.901 1266.69 167.463C1275.2 173.31 1288 169.35 1298.75 165.543C1302.38 164.261 1290.77 165.725 1311.58 167.962C1328.53 169.785 1333.87 170.892 1345.1 168.772C1352.19 167.432 1359.27 165.716 1366.36 165.427C1377.73 164.964 1389.23 163.682 1400.45 166.14C1416.42 169.64 1440 165.783 1440 169.514V179.92L711.467 179.92Z" fill="#1C74B3"/>
</g>
<defs>
<clipPath id="clip0_38_232">
<rect width="507.01" height="171.92" fill="white" transform="translate(466.495)"/>
</clipPath>
<clipPath id="clip1_38_232">
<rect width="1440" height="18" fill="white" transform="matrix(-1 0 0 -1 1440 179.92)"/>
</clipPath>
</defs>
</svg>
