<svg width="1440" height="114" viewBox="0 0 1440 114" fill="none" xmlns="http://www.w3.org/2000/svg">
<g clip-path="url(#clip0_97_2470)">
<path d="M711.467 110V92.932C703.467 96.652 705.755 92.199 698.85 94.474C687.196 98.291 675.82 99.544 664.152 96.653C652.903 93.877 641.628 96.332 630.322 94.52C618.338 92.592 606.649 89.584 594.393 95.378C586.507 99.098 577.558 94.423 569.084 94.365C565.696 94.336 562.287 91.544 558.908 92.932C557.886 93.346 556.986 95.042 555.98 95.207C545.451 97.019 534.897 100.104 524.373 99.959C510.114 99.757 500.932 91.072 486.933 96.653C472.935 102.233 489.6 98.533 477.333 99.959C465.928 101.285 449.85 89.857 434.133 95.959C423.093 100.259 398.516 95.12 387.2 95.959C363.562 97.704 347.2 101 323.2 99.959C294.859 98.729 297.108 97.703 291.2 96.653C265.079 91.987 252.306 97.68 226.133 94.865C211.951 93.323 201.089 96.548 186.824 95.912C180.707 95.632 174.671 101.928 168.548 99.865C164.454 98.487 164.33 91.981 156.241 97.543C147.733 103.39 134.933 99.43 124.18 95.623C120.556 94.341 132.164 95.805 111.357 98.042C94.4001 99.865 89.0631 100.972 77.8289 98.852C70.7452 97.512 63.662 95.796 56.5783 95.507C45.2066 95.044 33.7068 93.762 22.4834 96.22C6.51164 99.72 -17.0665 95.863 -17.0665 99.594V110L711.467 110Z" fill="white"/>
<path d="M711.467 110V92.9319C719.467 96.6519 717.179 92.1989 724.084 94.4739C735.737 98.2909 747.113 99.5439 758.782 96.6529C770.031 93.8769 781.306 96.3319 792.611 94.5199C804.596 92.5919 816.284 89.5839 828.54 95.3779C836.427 99.0979 845.376 94.4229 853.85 94.3649C857.238 94.3359 860.647 91.5439 864.026 92.9319C865.048 93.3459 865.947 95.0419 866.954 95.2069C877.482 97.0189 888.036 100.104 898.56 99.9589C912.819 99.7569 922.001 91.0719 936 96.6529C949.999 102.233 933.333 98.5329 945.6 99.9589C957.006 101.285 973.084 89.8569 988.8 95.9589C999.84 100.259 1024.42 95.1199 1035.73 95.9589C1059.37 97.7039 1075.73 101 1099.73 99.9589C1128.07 98.7289 1125.83 97.7029 1131.73 96.6529C1157.86 91.9869 1170.63 97.6799 1196.8 94.8649C1210.98 93.3229 1221.84 96.5479 1236.11 95.9119C1242.23 95.6319 1248.26 101.928 1254.39 99.8649C1258.48 98.4869 1258.6 91.9809 1266.69 97.5429C1275.2 103.39 1288 99.4299 1298.75 95.6229C1302.38 94.3409 1290.77 95.8049 1311.58 98.0419C1328.53 99.8649 1333.87 100.972 1345.1 98.8519C1352.19 97.5119 1359.27 95.7959 1366.36 95.5069C1377.73 95.0439 1389.23 93.7619 1400.45 96.2199C1416.42 99.7199 1440 95.8629 1440 99.5939V110L711.467 110Z" fill="white"/>
</g>
<g clip-path="url(#clip1_97_2470)">
<path d="M1440 114V95.8311H1427.12L1427.61 80.0891H1422.72V76.6078H1426.91V73.1266H1420.62L1412.92 53.6182H1407.33L1407.75 85.6326H1402.6C1401.81 83.9086 1400.58 82.7813 1399.32 82.0386L1399.66 81.4882V72.795H1398.17V68.339H1396.89V54.7654H1395.61L1394.76 33.765V33.3406L1393.92 54.341H1392.64V67.9146H1391.36V72.3706H1389.87V81.0639L1390.2 81.6142C1388.92 82.3702 1387.66 83.524 1386.88 85.3077L1387.86 85.6326H1382.03V85.3011H1378.05V78.9552H1375.27V74.4594H1368.1V78.9552H1365.32V85.3011H1357.88V67.9876H1349.76V94.8828H1348.18V83.8887H1345.27V72.7022H1339.83V67.8881H1333.02V75.7591L1326.7 75.7193V60.4349H1317.53V72.9343L1314.37 77.6158V91.5872H1312.11V80.6527H1307.58V77.9937H1306.64V80.6527H1306.15V77.9937H1305.21V80.6527H1303.1L1300.86 84.5451V96.4345H1298.98V44.6862C1298.98 44.0895 1298.5 43.6054 1297.9 43.6054H1297.81V36.1256C1297.81 35.5686 1297.36 35.1177 1296.8 35.1177H1296.66V29.435C1296.66 28.9642 1296.3 28.5729 1295.84 28.5199V24.3225C1295.84 23.845 1295.46 23.4604 1294.98 23.4604H1294.3V21.6237C1294.3 21.5772 1294.3 21.5375 1294.28 21.491L1290.69 12.831C1290.67 12.7912 1290.67 12.7448 1290.67 12.6983V0.338181C1290.67 0.152513 1290.51 0 1290.33 0C1290.14 0 1289.99 0.152513 1289.99 0.338181V12.705C1289.99 12.7514 1289.98 12.7912 1289.96 12.8376L1286.38 21.4977C1286.36 21.5375 1286.35 21.5839 1286.35 21.6303V23.4671H1285.68C1285.2 23.4671 1284.81 23.8517 1284.81 24.3291V28.5265C1284.36 28.5796 1284 28.9642 1284 29.4416V35.1244H1283.85C1283.3 35.1244 1282.85 35.5753 1282.85 36.1323V43.612H1282.75C1282.16 43.612 1281.67 44.0961 1281.67 44.6929V65.9518H1265.01V44.6929C1265.01 44.0961 1264.53 43.612 1263.93 43.612H1263.84V36.1323C1263.84 35.5753 1263.39 35.1244 1262.83 35.1244H1262.69V29.4416C1262.69 28.9708 1262.33 28.5796 1261.87 28.5265V24.3291C1261.87 23.8517 1261.49 23.4671 1261.01 23.4671H1260.33V21.6303C1260.33 21.5839 1260.33 21.5441 1260.31 21.4977L1256.72 12.8376C1256.7 12.7978 1256.69 12.7514 1256.69 12.705V0.338181C1256.69 0.152513 1256.54 0 1256.36 0C1256.17 0 1256.02 0.152513 1256.02 0.338181V12.705C1256.02 12.7514 1256.01 12.7912 1255.99 12.8376L1252.41 21.4977C1252.39 21.5375 1252.38 21.5839 1252.38 21.6303V23.4671H1251.7C1251.23 23.4671 1250.84 23.8517 1250.84 24.3291V28.5265C1250.39 28.5796 1250.03 28.9642 1250.03 29.4416V35.1244H1249.88C1249.33 35.1244 1248.87 35.5753 1248.87 36.1323V43.612H1248.78C1248.19 43.612 1247.7 44.0961 1247.7 44.6929V89.0012H1244.8V77.6423H1237.46V82.8675H1234.22V57.9946H1224.84V69.1413H1217.89V66.3497H1216.91V69.1413H1216.38V66.3497H1215.4V69.1413H1213.19L1210.85 73.2327V84.2335H1209.1V92.7875H1206.31V61.0781H1203.22V48.0879H1192.92V57.1392H1191.13V61.0781H1190.44V61.5886H1183.02V70.7527H1177V78.6038H1172.56V87.244H1169.36V52.7429H1163.86V50.3889H1150.78V52.7429H1145.02V73.3321H1135.42V65.4744H1134.37V73.3321H1133.32V58.9296H1130.97V73.3321H1127.31V98.205H1123.91V90.0886H1108.19V98.205H1104V114.007H1440V114ZM1281.67 71.1572V79.4525C1279.93 77.2908 1277.06 73.6769 1275.06 71.1572H1281.67ZM1265.01 71.1572H1272.24C1269.98 74.0085 1266.62 78.2391 1265.01 80.2085V71.1572ZM1265.01 80.7191C1266.54 78.8491 1270.21 74.2406 1272.65 71.1572H1274.65C1276.81 73.8825 1279.92 77.7948 1281.67 79.9631V81.4352H1272.44V87.9734H1265.01V80.7124V80.7191Z" fill="white"/>
</g>
<defs>
<clipPath id="clip0_97_2470">
<rect width="1440" height="18" fill="white" transform="matrix(-1 0 0 -1 1440 110)"/>
</clipPath>
<clipPath id="clip1_97_2470">
<rect width="336" height="114" fill="white" transform="translate(1104)"/>
</clipPath>
</defs>
</svg>
