<svg width="1440" height="114" viewBox="0 0 1440 114" fill="none" xmlns="http://www.w3.org/2000/svg">
<g clip-path="url(#clip0_38_424)">
<path d="M711.467 110V92.932C703.467 96.652 705.755 92.199 698.85 94.474C687.196 98.291 675.82 99.544 664.152 96.653C652.903 93.877 641.628 96.332 630.322 94.52C618.338 92.592 606.649 89.584 594.393 95.378C586.507 99.098 577.558 94.423 569.084 94.365C565.696 94.336 562.287 91.544 558.908 92.932C557.886 93.346 556.986 95.042 555.98 95.207C545.451 97.019 534.897 100.104 524.373 99.959C510.114 99.757 500.932 91.072 486.933 96.653C472.935 102.233 489.6 98.533 477.333 99.959C465.928 101.285 449.85 89.857 434.133 95.959C423.093 100.259 398.516 95.12 387.2 95.959C363.562 97.704 347.2 101 323.2 99.959C294.859 98.729 297.108 97.703 291.2 96.653C265.079 91.987 252.306 97.68 226.133 94.865C211.951 93.323 201.089 96.548 186.824 95.912C180.707 95.632 174.671 101.928 168.548 99.865C164.454 98.487 164.33 91.981 156.241 97.543C147.733 103.39 134.933 99.43 124.18 95.623C120.556 94.341 132.164 95.805 111.357 98.042C94.4001 99.865 89.063 100.972 77.8289 98.852C70.7452 97.512 63.662 95.796 56.5783 95.507C45.2065 95.044 33.7068 93.762 22.4834 96.22C6.51166 99.72 -17.0665 95.863 -17.0665 99.594V110L711.467 110Z" fill="white"/>
<path d="M711.467 110V92.9319C719.467 96.6519 717.179 92.1989 724.084 94.4739C735.737 98.2909 747.113 99.5439 758.782 96.6529C770.031 93.8769 781.306 96.3319 792.611 94.5199C804.596 92.5919 816.284 89.5839 828.54 95.3779C836.427 99.0979 845.376 94.4229 853.85 94.3649C857.238 94.3359 860.647 91.5439 864.026 92.9319C865.048 93.3459 865.947 95.0419 866.954 95.2069C877.482 97.0189 888.036 100.104 898.56 99.9589C912.819 99.7569 922.001 91.0719 936 96.6529C949.999 102.233 933.333 98.5329 945.6 99.9589C957.006 101.285 973.084 89.8569 988.8 95.9589C999.84 100.259 1024.42 95.1199 1035.73 95.9589C1059.37 97.7039 1075.73 101 1099.73 99.9589C1128.07 98.7289 1125.83 97.7029 1131.73 96.6529C1157.86 91.9869 1170.63 97.6799 1196.8 94.8649C1210.98 93.3229 1221.84 96.5479 1236.11 95.9119C1242.23 95.6319 1248.26 101.928 1254.39 99.8649C1258.48 98.4869 1258.6 91.9809 1266.69 97.5429C1275.2 103.39 1288 99.4299 1298.75 95.6229C1302.38 94.3409 1290.77 95.8049 1311.58 98.0419C1328.53 99.8649 1333.87 100.972 1345.1 98.8519C1352.19 97.5119 1359.27 95.7959 1366.36 95.5069C1377.73 95.0439 1389.23 93.7619 1400.45 96.2199C1416.42 99.7199 1440 95.8629 1440 99.5939V110L711.467 110Z" fill="white"/>
</g>
<g clip-path="url(#clip1_38_424)">
<path d="M1220 114V95.8311H1207.12L1207.61 80.0891H1202.72V76.6078H1206.91V73.1266H1200.62L1192.92 53.6182H1187.33L1187.75 85.6326H1182.6C1181.81 83.9086 1180.58 82.7813 1179.32 82.0386L1179.66 81.4883V72.795H1178.17V68.339H1176.89V54.7654H1175.61L1174.76 33.765V33.3406L1173.92 54.341H1172.64V67.9146H1171.36V72.3706H1169.87V81.0639L1170.2 81.6142C1168.92 82.3702 1167.66 83.524 1166.88 85.3077L1167.86 85.6326H1162.03V85.3011H1158.05V78.9552H1155.27V74.4594H1148.1V78.9552H1145.32V85.3011H1137.88V67.9875H1129.76V94.8829H1128.18V83.8887H1125.27V72.7022H1119.83V67.8881H1113.02V75.7591L1106.7 75.7193V60.4349H1097.53V72.9343L1094.37 77.6158V91.5872H1092.11V80.6527H1087.58V77.9937H1086.64V80.6527H1086.15V77.9937H1085.21V80.6527H1083.1L1080.86 84.5451V96.4345H1078.98V44.6862C1078.98 44.0895 1078.5 43.6054 1077.9 43.6054H1077.81V36.1256C1077.81 35.5686 1077.36 35.1177 1076.8 35.1177H1076.66V29.435C1076.66 28.9642 1076.3 28.5729 1075.84 28.5199V24.3225C1075.84 23.845 1075.46 23.4604 1074.98 23.4604H1074.3V21.6237C1074.3 21.5772 1074.3 21.5375 1074.28 21.491L1070.69 12.831C1070.67 12.7912 1070.67 12.7448 1070.67 12.6983V0.338181C1070.67 0.152513 1070.51 0 1070.33 0C1070.14 0 1069.99 0.152513 1069.99 0.338181V12.705C1069.99 12.7514 1069.98 12.7912 1069.96 12.8376L1066.38 21.4977C1066.36 21.5375 1066.35 21.5839 1066.35 21.6303V23.4671H1065.68C1065.2 23.4671 1064.81 23.8517 1064.81 24.3291V28.5265C1064.36 28.5796 1064 28.9642 1064 29.4416V35.1244H1063.85C1063.3 35.1244 1062.85 35.5753 1062.85 36.1323V43.612H1062.75C1062.16 43.612 1061.67 44.0961 1061.67 44.6929V65.9518H1045.01V44.6929C1045.01 44.0961 1044.53 43.612 1043.93 43.612H1043.84V36.1323C1043.84 35.5753 1043.39 35.1244 1042.83 35.1244H1042.69V29.4416C1042.69 28.9708 1042.33 28.5796 1041.87 28.5265V24.3291C1041.87 23.8517 1041.49 23.4671 1041.01 23.4671H1040.33V21.6303C1040.33 21.5839 1040.33 21.5441 1040.31 21.4977L1036.72 12.8376C1036.7 12.7978 1036.69 12.7514 1036.69 12.705V0.338181C1036.69 0.152513 1036.54 0 1036.36 0C1036.17 0 1036.02 0.152513 1036.02 0.338181V12.705C1036.02 12.7514 1036.01 12.7912 1035.99 12.8376L1032.41 21.4977C1032.39 21.5375 1032.38 21.5839 1032.38 21.6303V23.4671H1031.7C1031.23 23.4671 1030.84 23.8517 1030.84 24.3291V28.5265C1030.39 28.5796 1030.03 28.9642 1030.03 29.4416V35.1244H1029.88C1029.33 35.1244 1028.87 35.5753 1028.87 36.1323V43.612H1028.78C1028.19 43.612 1027.7 44.0961 1027.7 44.6929V89.0012H1024.8V77.6423H1017.46V82.8675H1014.22V57.9946H1004.84V69.1413H997.887V66.3497H996.906V69.1413H996.382V66.3497H995.401V69.1413H993.195L990.849 73.2327V84.2335H989.099V92.7875H986.309V61.0781H983.221V48.0879H972.916V57.1392H971.133V61.0781H970.444V61.5886H963.021V70.7527H957.004V78.6038H952.557V87.244H949.356V52.7429H943.862V50.3889H930.781V52.7429H925.022V73.3321H915.419V65.4744H914.372V73.3321H913.325V58.9296H910.972V73.3321H907.307V98.205H903.908V90.0886H888.188V98.205H884V114.007H1220V114ZM1061.67 71.1572V79.4525C1059.93 77.2908 1057.06 73.6769 1055.06 71.1572H1061.67ZM1045.01 71.1572H1052.24C1049.98 74.0085 1046.62 78.2391 1045.01 80.2085V71.1572ZM1045.01 80.7191C1046.54 78.8491 1050.21 74.2406 1052.65 71.1572H1054.65C1056.81 73.8825 1059.92 77.7948 1061.67 79.9631V81.4352H1052.44V87.9734H1045.01V80.7124V80.7191Z" fill="white"/>
</g>
<defs>
<clipPath id="clip0_38_424">
<rect width="1440" height="18" fill="white" transform="matrix(-1 0 0 -1 1440 110)"/>
</clipPath>
<clipPath id="clip1_38_424">
<rect width="336" height="114" fill="white" transform="translate(884)"/>
</clipPath>
</defs>
</svg>
